<svg xmlns="http://www.w3.org/2000/svg" width="117" height="28" viewBox="0 0 117 28">
    <defs>
        <path id="a" d="M0 27.577V.046h116.832v27.53H0V.047h116.832v27.54H0v-.01z"/>
    </defs>
    <g fill="none" fill-rule="evenodd">
        <path fill="#666" d="M39.682 23.444h2.232c.656 0 .984-.326.984-.98v-2.989c0-.654-.328-.98-.984-.98h-2.232v4.95zm0-8.177h2.232c.32 0 .565-.084.732-.252.168-.167.252-.402.252-.706v-3.012c0-.653-.328-.982-.984-.982h-2.232v4.952zm-3.336 11.01V7.472c0-.255.132-.382.393-.382h5.862c1.15 0 2.028.299 2.633.896.603.599.905 1.476.905 2.63v4.497c0 .445-.146.83-.434 1.154a1.824 1.824 0 0 1-1.098.59v.049c.444.072.81.265 1.098.585.288.32.434.702.434 1.147v4.508c0 1.158-.302 2.033-.905 2.63-.605.599-1.482.898-2.633.898h-5.862a.383.383 0 0 1-.285-.108.384.384 0 0 1-.108-.287zM49.465 9.922c0-.262.13-.395.394-.395h2.546c.12 0 .216.036.287.108a.39.39 0 0 1 .107.287v16.356a.39.39 0 0 1-.107.287.389.389 0 0 1-.287.108h-2.546c-.263 0-.394-.132-.394-.395V9.922M59.14 18.351h2.439c.653 0 .98-.327.98-.98v-3.696c0-.652-.327-.98-.98-.98h-2.44v5.656zm-3.192 7.927V9.922c0-.12.037-.215.107-.287a.389.389 0 0 1 .287-.108h5.883c1.156 0 2.033.299 2.63.897.598.597.897 1.475.897 2.631v4.925c0 1.427-.46 2.423-1.375 2.99l1.267 5.26c.072.295-.04.443-.335.443h-2.403c-.232 0-.37-.116-.418-.348l-1.172-4.818h-2.177v4.77c0 .12-.036.217-.106.287a.385.385 0 0 1-.288.109h-2.403a.385.385 0 0 1-.287-.109.39.39 0 0 1-.107-.286zM72.235 23.444h2.248c.653 0 .98-.326.98-.98v-8.692c0-.67-.327-1.004-.98-1.004h-2.248v10.676zm-3.336 2.834V9.923c0-.263.132-.396.394-.396h5.884c1.155 0 2.032.305 2.63.91.597.605.897 1.486.897 2.64v10.068c0 1.158-.3 2.033-.897 2.63-.598.599-1.475.898-2.63.898h-5.884c-.262 0-.394-.132-.394-.395zM81.968 26.278V7.47c0-.119.035-.213.103-.281a.363.363 0 0 1 .268-.101h9.015c.263 0 .394.127.394.382v2.451c0 .279-.131.419-.395.419h-6.144v4.9h4.696c.264 0 .397.136.397.407v2.427c0 .28-.133.42-.397.42h-4.696v4.95h6.144c.152 0 .256.027.312.082.056.057.083.156.083.3v2.45c0 .264-.131.396-.394.396h-9.015a.348.348 0 0 1-.268-.109.398.398 0 0 1-.103-.286M92.972 10.101a.497.497 0 0 1-.06-.221c0-.068.02-.129.06-.186.072-.112.199-.167.383-.167h2.45c.271 0 .459.133.562.396l2.75 6.3 2.738-6.3c.104-.263.29-.396.562-.396h2.45c.185 0 .312.055.384.167.04.057.06.121.06.193a.587.587 0 0 1-.047.214l-4.485 10.151v5.93c0 .327-.163.49-.49.49h-2.355c-.327 0-.49-.163-.49-.49v-5.93l-4.472-10.15M107.052 26.278V9.922c0-.12.035-.215.103-.287a.352.352 0 0 1 .268-.108h9.015c.263 0 .394.133.394.395v2.451c0 .278-.13.418-.394.418h-6.05v3.766h4.604c.263 0 .394.14.394.42v2.427c0 .278-.13.417-.394.417h-4.603v3.624h6.049c.152 0 .256.027.311.082.055.057.083.156.083.3v2.45c0 .264-.13.396-.394.396h-9.015a.348.348 0 0 1-.268-.109.398.398 0 0 1-.103-.286"/>
        <path fill="#1976D2" d="M19.698 23.531A4.014 4.014 0 0 1 15.2 22.38l-.008.01-5.728-7.026.009-.01a1.51 1.51 0 0 1-.17-.312 1.501 1.501 0 0 1 .862-1.94 1.49 1.49 0 0 1 1.045-.007l.002-.003 7.908 2.754a4.026 4.026 0 0 1 .578 7.686m-3.08-19.13a3.44 3.44 0 1 1 2.151 6.536 3.44 3.44 0 0 1-2.152-6.536m10.957 2.33a1.567 1.567 0 0 0-.906-.625v-.005l-1.331-.358c-.02-.065-.032-.13-.053-.194A8.005 8.005 0 0 0 15.177.45a7.976 7.976 0 0 0-4.733 4.2L8.038 8.576l-5.71-2.315-.003.004c-.36-.15-.77-.182-1.169-.05A1.68 1.68 0 0 0 .085 8.336c.042.129.102.246.17.357l-.01.01 5.958 8.103.013.023.018.02 4.298 6.126c1.692 3.619 5.856 5.486 9.745 4.206a8.004 8.004 0 0 0 3-13.417 8.036 8.036 0 0 0 2.277-4.267l1.288-.383-.001-.014c.114-.044.225-.098.33-.171a1.58 1.58 0 0 0 .403-2.199"/>
    </g>
</svg>
